<svg xmlns="http://www.w3.org/2000/svg" viewBox="0 0 512 512">
  <defs>
    <linearGradient id="violetGlow" x1="0%" y1="0%" x2="100%" y2="100%">
      <stop offset="0%" style="stop-color:#a78bfa;stop-opacity:1" />
      <stop offset="100%" style="stop-color:#8b5cf6;stop-opacity:1" />
    </linearGradient>
  </defs>
  
  <!-- Background circle -->
  <circle cx="256" cy="256" r="256" fill="#0a0a0a"/>
  
  <!-- Connection lines -->
  <g stroke="url(#violetGlow)" stroke-width="3" stroke-opacity="0.5" fill="none">
    <!-- Outer connections -->
    <line x1="256" y1="100" x2="380" y2="180"/>
    <line x1="380" y1="180" x2="380" y2="332"/>
    <line x1="380" y1="332" x2="256" y2="412"/>
    <line x1="256" y1="412" x2="132" y2="332"/>
    <line x1="132" y1="332" x2="132" y2="180"/>
    <line x1="132" y1="180" x2="256" y2="100"/>
    
    <!-- Inner connections to center -->
    <line x1="256" y1="100" x2="256" y2="256"/>
    <line x1="380" y1="180" x2="256" y2="256"/>
    <line x1="380" y1="332" x2="256" y2="256"/>
    <line x1="256" y1="412" x2="256" y2="256"/>
    <line x1="132" y1="332" x2="256" y2="256"/>
    <line x1="132" y1="180" x2="256" y2="256"/>
    
    <!-- Cross connections -->
    <line x1="132" y1="180" x2="380" y2="332"/>
    <line x1="380" y1="180" x2="132" y2="332"/>
  </g>
  
  <!-- Nodes -->
  <g fill="url(#violetGlow)">
    <!-- Center node (larger) -->
    <circle cx="256" cy="256" r="24"/>
    
    <!-- Outer nodes -->
    <circle cx="256" cy="100" r="16"/>
    <circle cx="380" cy="180" r="16"/>
    <circle cx="380" cy="332" r="16"/>
    <circle cx="256" cy="412" r="16"/>
    <circle cx="132" cy="332" r="16"/>
    <circle cx="132" cy="180" r="16"/>
  </g>
  
  <!-- Subtle glow on center -->
  <circle cx="256" cy="256" r="32" fill="none" stroke="#8b5cf6" stroke-width="2" stroke-opacity="0.3"/>
</svg>
